<?xml version="1.0" encoding="UTF-8" standalone="no"?>
<!DOCTYPE svg PUBLIC "-//W3C//DTD SVG 1.1//EN" "http://www.w3.org/Graphics/SVG/1.1/DTD/svg11.dtd">
<svg width="100%" height="100%" viewBox="0 0 1000 250" version="1.1" xmlns="http://www.w3.org/2000/svg" xmlns:xlink="http://www.w3.org/1999/xlink" xml:space="preserve" xmlns:serif="http://www.serif.com/" style="fill-rule:evenodd;clip-rule:evenodd;stroke-linejoin:round;stroke-miterlimit:2;">
    <g id="rect1060" transform="matrix(1,0,0,1,0,-872.52)">
        <rect x="0" y="872.52" width="1000" height="250" style="fill:rgb(114,78,145);"/>
    </g>
    <g id="Layer3">
        <g transform="matrix(1,0,0,1,221.118,45.991)">
            <circle cx="278.882" cy="107.887" r="94.301" style="fill:rgb(248,198,48);"/>
        </g>
        <g transform="matrix(1.22797,0,0,1.22797,157.54,21.3954)">
            <circle cx="278.882" cy="107.887" r="94.301" style="fill:rgb(248,198,48);fill-opacity:0.25;"/>
        </g>
        <g transform="matrix(1.42312,0,0,1.42312,103.117,0.341853)">
            <circle cx="278.882" cy="107.887" r="94.301" style="fill:rgb(248,198,48);fill-opacity:0.25;"/>
        </g>
    </g>
    <g id="Layer2">
        <path d="M0,49.209L35.622,13.586L70.746,48.71L70.746,125L111.385,84.361L138.078,84.361L138.078,70.156L179.973,70.156L179.973,85.167L235.131,85.167L274.964,125L274.964,50.029L289.064,50.029L289.064,37.363L318.482,37.363L318.482,49.621L340.137,49.621L340.137,125L383.751,81.386L427.365,125L449.02,103.345L470.674,125L470.674,52.889L530.943,52.889L530.943,202.429L570.984,162.389L570.984,91.182L612.659,91.182L632.328,110.851L632.328,207.741L676.886,163.183L719.772,206.069L719.772,137.122L804.68,137.122L804.68,204.154L834.047,174.788L893.418,174.788L917.997,199.366L917.997,134.568L938.107,134.568L938.107,125L975.773,125L975.773,133.93L1000,133.93L1000,250L0,250L0,49.209Z" style="fill:rgb(69,31,85);"/>
    </g>
    <g transform="matrix(1,0,0,1,0,23.705)">
        <g id="Layer1">
            <path d="M0,114.047L67.255,114.047L67.255,180.88L98.177,180.88L98.177,113.049L149.05,113.049L149.05,151.952L201.918,151.952L201.918,59.577L243.512,17.984L243.512,146.965L265.477,125L286.077,145.6L287.077,182.813L398.43,182.813L397.43,73.149L434.338,73.149L476.234,115.044L476.234,139.982L525.112,139.982L605.516,59.577L605.516,138.985L658.778,138.985L658.778,69.159L728.246,138.627L728.246,201.828L785.462,201.828L785.462,142.975L804.414,142.975L804.414,125L856.662,125L856.662,138.985L892.195,138.985L892.195,203.823L931.098,203.823L931.098,150.955L1000,150.955L1000,226.295L0,226.295L0,114.047Z" style="fill:rgb(229,79,109);"/>
        </g>
    </g>
    <g transform="matrix(1,0,0,1,709.162,69.265)">
        <g id="text1122">
            <g>
                <g>
                    <text x="0px" y="0px" style="font-family:'Arial-Black', 'Arial', sans-serif;font-weight:900;font-size:85.333px;fill:rgb(229,79,109);">c</text>
                    <text x="56.916px" y="0px" style="font-family:'Arial-Black', 'Arial', sans-serif;font-weight:900;font-size:85.333px;fill:rgb(248,198,48);">ar<tspan x="153.833px 210.749px " y="0px 0px ">gs</tspan></text>
                </g>
            </g>
        </g>
    </g>
</svg>
